<svg width="493" height="398" viewBox="0 0 493 398" fill="none" xmlns="http://www.w3.org/2000/svg">
    <g clip-path="url(#clip0_415_58)">
        <path d="M166.128 41.5653C206.104 -12.4341 286.896 -12.434 326.872 41.5653L472.665 238.5C521.526 304.5 474.411 398 392.293 398H100.707C18.5894 398 -28.5255 304.499 20.3351 238.499L166.128 41.5653Z" fill="url(#paint0_linear_415_58)"/>
        <path d="M184.505 34.8928C198.639 34.8928 210.719 26.3773 215.63 14.342C226.222 26.9804 242.359 35.0561 260.441 35.0561C268.077 35.0561 275.365 33.6117 282.037 30.9944C286.677 35.3299 292.977 38 299.923 38C307.22 38 313.805 35.0537 318.5 30.3249L315.959 27.8562C304.22 16.4484 290.239 8.54965 275.396 4.14778C274.98 4.02486 274.563 3.90194 274.145 3.78403C274.033 3.75219 273.921 3.72271 273.808 3.69205C272.995 3.46478 272.178 3.24872 271.36 3.04238C271.147 2.98961 270.933 2.93537 270.72 2.88378C270.307 2.78179 269.893 2.68363 269.478 2.58665C269.276 2.54125 269.075 2.49703 268.874 2.45164C268.13 2.2845 267.386 2.12592 266.64 1.97617C266.427 1.93314 266.214 1.89009 266 1.84852C265.59 1.76864 265.181 1.69259 264.771 1.61742C264.539 1.57586 264.307 1.53519 264.075 1.49481C263.331 1.3657 262.587 1.24543 261.842 1.13253C261.644 1.10305 261.445 1.07092 261.247 1.04291C260.844 0.983663 260.439 0.929715 260.036 0.875771C259.784 0.842461 259.53 0.810632 259.278 0.778796C258.877 0.72839 258.477 0.679161 258.075 0.633766C257.931 0.617848 257.787 0.604291 257.644 0.588373C256.859 0.503478 256.073 0.427427 255.288 0.361103C255.016 0.337816 254.745 0.315697 254.472 0.294768C254.085 0.26529 253.698 0.237004 253.311 0.211358C253.017 0.191609 252.723 0.176855 252.428 0.159759C251.803 0.12527 251.177 0.095796 250.552 0.0713297C250.254 0.0601283 249.956 0.0492274 249.659 0.0403841C249.287 0.0294775 248.915 0.0209363 248.542 0.0147461C248.227 0.00855581 247.912 0.00619027 247.598 0.0035373C247.028 -0.0011791 246.46 -0.0011791 245.889 0.0035373C245.541 0.00619027 245.193 0.00854616 244.845 0.0159155C244.49 0.0221058 244.134 0.0318371 243.78 0.0418594C243.448 0.051587 243.118 0.0639578 242.786 0.0760435C242.448 0.0896032 242.109 0.101992 241.771 0.11791C241.194 0.146208 240.616 0.180396 240.038 0.218717C239.707 0.240825 239.375 0.266469 239.044 0.290935C238.692 0.318055 238.34 0.346351 237.989 0.377007C237.663 0.405306 237.336 0.433618 237.01 0.465454C236.422 0.522051 235.834 0.582185 235.248 0.649688C234.949 0.684177 234.651 0.722195 234.354 0.759041C233.973 0.805616 233.592 0.853674 233.213 0.905259C232.9 0.946822 232.588 0.989853 232.278 1.03525C231.819 1.10157 231.36 1.17172 230.903 1.24424C230.528 1.30319 230.154 1.36569 229.779 1.42847C229.34 1.50335 228.9 1.58057 228.461 1.66046C228.169 1.7147 227.877 1.76983 227.585 1.82643C227.155 1.90867 226.725 1.99593 226.295 2.08436C226.05 2.13476 225.804 2.18369 225.558 2.23646C224.954 2.36557 224.352 2.50176 223.749 2.64325C223.48 2.70574 223.213 2.77088 222.944 2.83603C222.515 2.94038 222.087 3.04708 221.659 3.15644C221.413 3.22041 221.167 3.28172 220.921 3.34687C220.307 3.50899 219.694 3.67731 219.083 3.85182C218.85 3.91814 218.616 3.988 218.383 4.05698C217.938 4.18697 217.493 4.32081 217.049 4.45729C216.807 4.53216 216.565 4.60585 216.324 4.68337C215.705 4.87851 215.087 5.07985 214.47 5.28737C214.295 5.3478 214.121 5.4103 213.945 5.47043C213.458 5.63875 212.969 5.8106 212.484 5.98629C212.255 6.07001 212.024 6.15342 211.794 6.23832C211.255 6.43847 210.715 6.64362 210.178 6.8535C210.034 6.9101 209.89 6.96524 209.746 7.02183C209.158 7.25529 208.57 7.49582 207.985 7.74018C207.772 7.8298 207.557 7.92089 207.344 8.01168C206.854 8.22038 206.366 8.4341 205.878 8.65164C205.718 8.72298 205.557 8.79283 205.397 8.86535C204.782 9.1442 204.168 9.43043 203.557 9.72137C203.37 9.81098 203.183 9.90325 202.996 9.99286C202.518 10.2263 202.04 10.4621 201.565 10.7027C201.389 10.7911 201.212 10.8795 201.037 10.9706C200.425 11.2837 199.817 11.6029 199.212 11.9298C199.067 12.0082 198.922 12.0893 198.777 12.168C198.286 12.4371 197.797 12.7098 197.309 12.9872C197.129 13.0904 196.948 13.1923 196.768 13.2967C196.164 13.6457 195.56 14.0006 194.962 14.3629C194.89 14.4059 194.82 14.4513 194.749 14.4944C194.207 14.8248 193.668 15.1623 193.131 15.504C192.957 15.6157 192.785 15.7262 192.611 15.8391C192.086 16.1781 191.563 16.5221 191.042 16.8735C190.962 16.9263 190.882 16.979 190.804 17.0318C190.215 17.4309 189.632 17.8389 189.051 18.2516C188.893 18.3633 188.735 18.4774 188.576 18.5917C188.101 18.9331 187.628 19.2794 187.159 19.6308C187.033 19.7254 186.907 19.8174 186.781 19.912C186.211 20.3418 185.643 20.7804 185.081 21.225C184.947 21.3308 184.815 21.4375 184.683 21.543C184.225 21.9091 183.768 22.2799 183.316 22.6546C183.173 22.7737 183.029 22.8916 182.886 23.011C182.331 23.4765 181.78 23.9481 181.232 24.4271C181.143 24.5043 181.056 24.5854 180.966 24.6641C180.496 25.078 180.029 25.4992 179.567 25.9243C179.419 26.0593 179.273 26.1931 179.126 26.3296C178.586 26.8319 178.048 27.3392 177.516 27.8562L172.5 32.7297C176.227 34.1213 180.273 34.8928 184.505 34.8928Z" fill="white"/>
        <path d="M270.383 139C261.027 148.333 245.859 148.333 236.504 139" stroke="black" stroke-width="10" stroke-miterlimit="10" stroke-linecap="round" stroke-linejoin="round"/>
        <path d="M251.206 100.991C251.206 118.107 237.298 131.982 220.142 131.982C202.986 131.982 189.079 118.107 189.079 100.991C189.079 83.8749 202.986 70 220.142 70C237.298 70 251.206 83.8749 251.206 100.991Z" fill="white"/>
        <path d="M235.067 100.991C235.067 109.215 228.385 115.882 220.142 115.882C211.899 115.882 205.217 109.215 205.217 100.991C205.217 92.767 211.899 86.1003 220.142 86.1003C228.385 86.1003 235.067 92.767 235.067 100.991Z" fill="black"/>
        <path d="M260.12 106.2L303.921 96.9063" stroke="black" stroke-width="10" stroke-miterlimit="10" stroke-linecap="round" stroke-linejoin="round"/>
        <path d="M260.12 106.2L289.494 77.8447" stroke="black" stroke-width="10" stroke-miterlimit="10" stroke-linecap="round" stroke-linejoin="round"/>
        <path d="M260.12 106.2L300.787 119.41" stroke="black" stroke-width="10" stroke-miterlimit="10" stroke-linecap="round" stroke-linejoin="round"/>
        <path d="M338 44H155V51H338V44Z" fill="#FF7561"/>
        <path d="M338 47H155V54H338V47Z" fill="#FF3278"/>
        <path d="M338 47H155V49H338V47Z" fill="#FFFDFF"/>
    </g>
    <defs>
        <linearGradient id="paint0_linear_415_58" x1="246.5" y1="-67" x2="246.5" y2="553" gradientUnits="userSpaceOnUse">
            <stop offset="0.149038" stop-color="#009CFF"/>
            <stop offset="0.399038" stop-color="#00B3FF"/>
        </linearGradient>
        <clipPath id="clip0_415_58">
            <rect width="493" height="398" fill="white"/>
        </clipPath>
    </defs>
</svg>
