<svg width="1376" height="445" viewBox="0 0 1376 445" fill="none" xmlns="http://www.w3.org/2000/svg">
<g clip-path="url(#clip0_2048_21862)">
<path d="M772.101 84.5505C772.101 78.5625 769.897 73.0915 766.263 68.8935C768.014 63.6245 767.957 57.7275 765.665 52.1945C763.371 46.6565 759.236 42.4435 754.266 39.9565C753.866 34.4215 751.569 28.9975 747.337 24.7645C743.104 20.5315 737.68 18.2355 732.145 17.8355C729.658 12.8655 725.445 8.73049 719.907 6.43649C714.374 4.14449 708.477 4.08749 703.208 5.83849C699.01 2.20449 693.539 0.000488281 687.551 0.000488281C681.562 0.000488281 676.092 2.20449 671.894 5.83849C666.625 4.08749 660.727 4.14449 655.195 6.43649C649.657 8.73049 645.444 12.8655 642.957 17.8355C637.421 18.2355 631.997 20.5315 627.765 24.7645C623.532 28.9975 621.236 34.4215 620.836 39.9565C615.865 42.4435 611.73 46.6565 609.437 52.1945C607.145 57.7275 607.088 63.6245 608.839 68.8935C605.204 73.0915 603 78.5625 603 84.5505C603 90.5385 605.204 96.0095 608.839 100.207C607.088 105.476 607.145 111.373 609.436 116.906C611.73 122.444 615.865 126.658 620.836 129.145C621.236 134.68 623.532 140.104 627.765 144.336C631.997 148.569 637.421 150.865 642.957 151.265C645.444 156.236 649.657 160.371 655.195 162.665C660.727 164.956 666.625 165.013 671.894 163.262C676.092 166.896 681.562 169.1 687.551 169.1C693.539 169.1 699.01 166.896 703.208 163.262C708.477 165.013 714.374 164.956 719.907 162.664C725.445 160.37 729.658 156.235 732.145 151.265C737.68 150.865 743.104 148.569 747.337 144.336C751.569 140.104 753.866 134.68 754.266 129.145C759.236 126.658 763.371 122.444 765.665 116.906C767.957 111.373 768.014 105.476 766.263 100.207C769.897 96.0095 772.101 90.5385 772.101 84.5505Z" fill="#66391B"/>
</g>
<path d="M659.42 60.628C677.856 53.772 698.144 53.772 716.58 60.628L1321.68 285.642C1407.37 317.505 1384.52 444.5 1293.1 444.5H82.8969C-8.52136 444.5 -31.3692 317.505 54.3165 285.642L659.42 60.628Z" fill=""/>
<path opacity="0.2" d="M659.42 60.628C677.856 53.772 698.144 53.772 716.58 60.628L1321.68 285.642C1407.37 317.505 1384.52 444.5 1293.1 444.5H82.8969C-8.52136 444.5 -31.3692 317.505 54.3165 285.642L659.42 60.628Z" fill=""/>
<g clip-path="url(#clip1_2048_21862)">
<path d="M772.405 80.941L766.69 76.973C766.075 76.547 765.454 76.129 764.831 75.714L764.323 75.38C763.789 75.03 763.25 74.683 762.708 74.341L762.58 74.259L762.401 74.146C761.77 73.75 761.133 73.362 760.492 72.978L760.135 72.766L759.995 72.684C759.474 72.375 758.948 72.07 758.419 71.768L758.244 71.667L757.959 71.505C757.31 71.139 756.654 70.777 755.996 70.422L755.735 70.283L755.561 70.191C755.018 69.901 754.473 69.615 753.924 69.333L753.772 69.255L753.377 69.053C752.707 68.712 752.033 68.377 751.355 68.048L751.197 67.973L751.079 67.916C750.478 67.627 749.875 67.343 749.267 67.063L748.666 66.788C748.047 66.505 747.425 66.227 746.799 65.955L746.692 65.907L746.554 65.847C745.863 65.547 745.167 65.255 744.467 64.967L743.9 64.734C743.282 64.483 742.717 64.258 742.149 64.036L741.961 63.962L741.647 63.839C740.95 63.57 740.247 63.306 739.543 63.048L739.115 62.893L738.931 62.827C738.382 62.629 737.831 62.434 737.28 62.242L737.098 62.179L736.631 62.018C735.927 61.778 735.219 61.542 734.508 61.312L734.176 61.206L733.953 61.136C733.39 60.957 732.826 60.781 732.26 60.608L731.522 60.384C730.845 60.182 730.168 59.984 729.487 59.791L729.176 59.704L728.99 59.653C728.369 59.48 727.747 59.311 727.123 59.146L726.327 58.937C725.766 58.792 725.205 58.651 724.641 58.512L724.41 58.454L724.035 58.362C723.324 58.19 722.611 58.024 721.897 57.863L721.154 57.698L721.059 57.677C720.546 57.564 720.033 57.454 719.519 57.346L719.27 57.294L718.711 57.178C718.005 57.034 717.298 56.895 716.589 56.761L715.991 56.65L715.738 56.604C715.244 56.514 714.749 56.425 714.253 56.34L714.154 56.322C713.878 56.274 713.603 56.227 713.325 56.181C712.63 56.064 711.934 55.952 711.237 55.845L710.694 55.765L710.388 55.72C709.891 55.647 709.394 55.575 708.898 55.507C708.56 55.46 708.224 55.415 707.888 55.371C707.38 55.304 706.873 55.241 706.366 55.179C705.933 55.127 705.501 55.076 705.07 55.027C704.541 54.967 704.011 54.909 703.482 54.854C703.123 54.817 702.763 54.782 702.403 54.748C701.964 54.705 701.525 54.665 701.086 54.627L700.775 54.599C700.535 54.578 700.295 54.556 700.055 54.537C699.376 54.481 698.698 54.431 698.02 54.384C697.661 54.36 697.301 54.337 696.941 54.315C696.485 54.287 696.079 54.263 695.673 54.241L695.59 54.237C695.235 54.217 694.88 54.198 694.525 54.181C693.858 54.15 693.192 54.122 692.525 54.098C692.22 54.088 691.914 54.079 691.608 54.071L691.354 54.064C690.972 54.053 690.589 54.043 690.207 54.036C689.798 54.027 689.388 54.019 688.977 54.014C688.591 54.009 688.203 54.006 687.816 54.004C687.445 54.002 687.119 54.001 686.793 54.001C686.462 54.001 686.132 54.002 685.8 54.004C685.438 54.006 685.074 54.008 684.712 54.013C684.281 54.018 683.851 54.026 683.422 54.035C683.081 54.042 682.739 54.051 682.399 54.06C681.67 54.08 680.947 54.104 680.226 54.133L680.016 54.141C679.746 54.152 679.477 54.163 679.209 54.175C678.76 54.196 678.313 54.22 677.866 54.244C677.553 54.261 677.24 54.28 676.925 54.299C676.018 54.354 675.112 54.416 674.206 54.486L674.01 54.501L673.709 54.523C673.259 54.56 672.811 54.6 672.363 54.639L671.446 54.723C670.979 54.768 670.513 54.812 670.048 54.861L669.608 54.908L669.361 54.935C668.502 55.028 667.642 55.127 666.784 55.234L665.981 55.335C665.507 55.397 665.034 55.459 664.561 55.525L664.011 55.604L663.824 55.631C662.964 55.754 662.103 55.885 661.245 56.023L661.037 56.056L660.549 56.134C660.069 56.213 659.591 56.295 659.114 56.379L658.474 56.493L658.377 56.51C657.433 56.68 656.49 56.858 655.55 57.045L655.383 57.078L655.162 57.121C654.679 57.219 654.198 57.32 653.717 57.422C636.148 61.144 619.958 67.905 606.897 76.973L604.002 78.983L603 79.678L603.984 80.386C609.857 84.612 617.742 86.94 626.186 86.94C633.882 86.94 641.196 84.977 646.884 81.398C654.633 83.485 662.803 84.543 671.179 84.543C690.71 84.543 709.043 78.736 721.842 68.556C728.337 78.24 742.17 84.41 757.71 84.41C762.585 84.41 767.361 83.795 771.905 82.583L773.974 82.03L772.405 80.941Z" fill="#66391B"/>
</g>
<g clip-path="url(#clip2_2048_21862)">
<path d="M671.456 104.987C663.46 97.0101 650.496 97.0101 642.5 104.987" stroke="black" stroke-width="10" stroke-miterlimit="10" stroke-linecap="round" stroke-linejoin="round"/>
</g>
<path d="M656.989 170.977C652.733 170.977 649.089 168.304 647.648 164.548C646.379 165.117 644.994 165.415 643.562 165.415C640.891 165.415 638.38 164.375 636.491 162.487C633.48 159.476 632.794 155.006 634.434 151.331C630.676 149.892 628 146.247 628 141.988C628 137.73 630.676 134.085 634.434 132.645C632.795 128.97 633.481 124.501 636.49 121.491C638.38 119.602 640.891 118.562 643.562 118.562C644.994 118.562 646.379 118.86 647.648 119.429C649.089 115.673 652.733 113 656.989 113C661.245 113 664.889 115.673 666.33 119.428C667.598 118.86 668.984 118.562 670.416 118.562C673.087 118.562 675.598 119.602 677.487 121.49C680.497 124.501 681.183 128.97 679.544 132.645C683.302 134.085 685.977 137.73 685.977 141.988C685.977 146.246 683.302 149.891 679.544 151.331C681.184 155.005 680.498 159.475 677.487 162.486C675.598 164.375 673.087 165.415 670.416 165.415C668.984 165.415 667.598 165.117 666.33 164.548C664.889 168.304 661.245 170.977 656.989 170.977Z" fill="#FF8E00" stroke="#FFF200" stroke-width="5"/>
<g clip-path="url(#clip3_2048_21862)">
<path d="M734.456 104.987C726.46 97.0101 713.496 97.0101 705.5 104.987" stroke="black" stroke-width="10" stroke-miterlimit="10" stroke-linecap="round" stroke-linejoin="round"/>
</g>
<path d="M719.989 170.977C715.733 170.977 712.089 168.304 710.648 164.548C709.379 165.117 707.994 165.415 706.562 165.415C703.891 165.415 701.38 164.375 699.491 162.487C696.48 159.476 695.794 155.006 697.434 151.331C693.676 149.892 691 146.247 691 141.988C691 137.73 693.676 134.085 697.434 132.645C695.795 128.97 696.481 124.501 699.49 121.491C701.38 119.602 703.891 118.562 706.562 118.562C707.994 118.562 709.379 118.86 710.648 119.429C712.089 115.673 715.733 113 719.989 113C724.245 113 727.889 115.673 729.33 119.428C730.598 118.86 731.984 118.562 733.416 118.562C736.087 118.562 738.598 119.602 740.487 121.49C743.497 124.501 744.183 128.97 742.544 132.645C746.302 134.085 748.977 137.73 748.977 141.988C748.977 146.246 746.302 149.891 742.544 151.331C744.184 155.005 743.498 159.475 740.487 162.486C738.598 164.375 736.087 165.415 733.416 165.415C731.984 165.415 730.598 165.117 729.33 164.548C727.889 168.304 724.245 170.977 719.989 170.977Z" fill="#FF8E00" stroke="#FFF200" stroke-width="5"/>
<g clip-path="url(#clip4_2048_21862)">
<path d="M702.956 181.003C694.96 188.98 681.996 188.98 674 181.003" stroke="black" stroke-width="10" stroke-miterlimit="10" stroke-linecap="round" stroke-linejoin="round"/>
</g>

<defs>
<radialGradient id="paint0_radial_2048_21862" cx="0" cy="0" r="1" gradientUnits="userSpaceOnUse" gradientTransform="translate(688 313) rotate(90) scale(263 1225)">
<stop stop-color="white" stop-opacity="0.5"/>
<stop offset="1" stop-color="#2B87FF"/>
</radialGradient>
<clipPath id="clip0_2048_21862">
<rect width="170" height="170" fill="white" transform="translate(603)"/>
</clipPath>
<clipPath id="clip1_2048_21862">
<rect width="171" height="33" fill="white" transform="translate(603 55)"/>
</clipPath>
<clipPath id="clip2_2048_21862">
<rect width="39" height="16" fill="white" transform="translate(637.5 94)"/>
</clipPath>
<clipPath id="clip3_2048_21862">
<rect width="39" height="16" fill="white" transform="translate(700.5 94)"/>
</clipPath>
<clipPath id="clip4_2048_21862">
<rect width="39" height="16" fill="white" transform="translate(669 176)"/>
</clipPath>
<clipPath id="clip5_2048_21862">
<rect width="1366" height="224" fill="white" transform="translate(5 221)"/>
</clipPath>
</defs>
</svg>
